# xmcd
#
# Track frame offsets:
#	150
#	14030
#	29208
#	47300
#	63986
#	79490
#	93246
#	106151
#	120107
#	133268
#	147423
#	162368
#	178764
#	195275
#	213978
#	229974
#	246064
#	260850
#	274062
#	293799
#	308780
#
# Disc length: 4335 seconds
#
# Revision: 1
# Processed by: cddbd v1.5.2PL0 Copyright (c) Steve Scherf et al.
# Submitted via: dBpowerAMP V4.0
#
DISCID=3510ed15
DTITLE=Various Artist - Hott Country Volume 260 Can
DYEAR=2017
DGENRE=Country
TTITLE0=Blake Shelton - I'll Name The Dogs
TTITLE1=Brett Kissel - We Were That Song
TTITLE2=Scotty McCreery - Five More Minutes
TTITLE3=Maren Morris ft. Vince Gill - Dear Hate
TTITLE4=Paul Brandt - The Journey
TTITLE5=Midland - Make A Little
TTITLE6=Gord Bamford ft. Jim Cuddy - Ain't It Grand
TTITLE7=Old Dominion - Written In The Sand
TTITLE8=Chris Henderson - Kissing Sadie
TTITLE9=Lady Antebellum - Heart Break
TTITLE10=Dallas Smith - Sleepin' Around
TTITLE11=Runaway June - Wild West
TTITLE12=Leaving Thomas - Blame It On The Neon
TTITLE13=Kid Rock - Tennessee Mountain Top
TTITLE14=Chris Lane ft. Tori Kelly - Take Back Home
TTITLE15=Morgan Evans - Kiss Somebody
TTITLE16=Trace Adkins - Still A Soldier
TTITLE17=Jackson Michelson - Rollin'
TTITLE18=Aaron Goodvin - Miss Me Yet
TTITLE19=William Michael Morgan - Vinyl
TTITLE20=Tyminski - Bloodline
EXTD=
EXTT0=
EXTT1=
EXTT2=
EXTT3=
EXTT4=
EXTT5=
EXTT6=
EXTT7=
EXTT8=
EXTT9=
EXTT10=
EXTT11=
EXTT12=
EXTT13=
EXTT14=
EXTT15=
EXTT16=
EXTT17=
EXTT18=
EXTT19=
EXTT20=
PLAYORDER=
